<svg width="84" height="32" viewBox="0 0 84 32" fill="none" xmlns="http://www.w3.org/2000/svg">
<path d="M75.6848 31.0202C73.8625 30.9834 72.0627 30.6105 70.3758 29.9202L72.1698 27.0532C73.4636 27.9575 75.0023 28.4459 76.5808 28.4532C78.8238 28.4532 79.4228 27.5682 79.4228 26.9082C79.4228 26.2482 78.8228 25.2152 77.2578 24.4082C75.6928 23.6012 72.1708 21.8342 72.1708 18.8182C72.1708 15.8022 75.6868 13.1512 78.6708 13.1512C80.5055 13.1674 82.3061 13.6491 83.9038 14.5512L82.6328 17.1252C81.5139 16.1631 80.071 15.6626 78.5968 15.7252C76.0548 15.8002 75.9818 18.0782 77.8488 19.1082C79.7158 20.1382 82.7818 22.0542 83.0828 25.5082C83.3778 28.9082 78.8998 31.0282 75.8378 31.0272L75.6848 31.0202ZM28.7848 25.1352C28.6348 19.4712 32.3748 16.5262 34.3928 14.7612C36.4108 12.9962 44.7088 13.5082 44.7088 13.5082C44.7088 13.5082 43.5088 22.8532 43.2158 25.3562C42.9228 27.8592 43.2898 28.0042 44.1108 28.4452C44.3099 28.5198 44.522 28.5533 44.7344 28.5439C44.9468 28.5344 45.1551 28.4822 45.3468 28.3902C45.7888 28.2412 46.1288 28.0902 46.1288 28.4452C46.1288 29.1082 44.8588 30.8722 41.5708 30.9452C38.2828 31.0182 39.0928 27.6362 39.0928 27.6362C38.4736 28.6354 37.618 29.4668 36.6014 30.057C35.5848 30.6472 34.4385 30.978 33.2638 31.0202C32.2928 31.0202 28.9298 30.8002 28.7808 25.1352H28.7848ZM38.9518 15.3492C37.8588 15.5992 34.0188 16.6742 33.1968 24.1062C32.6718 29.1062 37.2338 28.3732 38.2068 26.3872C39.1798 24.4012 40.0748 17.6292 40.2248 16.8962C40.3608 16.2292 40.0038 15.3192 39.2118 15.3192C39.1229 15.3191 39.0343 15.3292 38.9478 15.3492H38.9518ZM22.2548 30.8732C19.5638 30.8012 19.3388 28.2992 19.5638 26.6792C19.7888 25.0592 21.7328 12.7732 22.0298 10.8602C22.0683 10.6054 22.0534 10.3454 21.9861 10.0966C21.9188 9.84786 21.8005 9.6158 21.6388 9.41516C21.4771 9.21452 21.2754 9.04967 21.0467 8.93107C20.8179 8.81247 20.5669 8.74271 20.3098 8.7262L20.5358 7.4002C22.4778 7.4732 26.9638 5.9272 26.9638 5.9272C26.9638 5.9272 24.1248 25.1272 23.8968 26.8272C23.6688 28.5272 24.8698 28.3722 25.6968 28.0772C26.5238 27.7822 27.3398 27.4882 27.3398 28.2982C27.3398 29.0922 25.0398 30.8752 22.4158 30.8752L22.2548 30.8732ZM48.7198 29.4842C48.4287 28.9415 48.3283 28.3168 48.4348 27.7102C48.6588 26.6102 49.4798 18.9562 49.8518 17.4842C50.2238 16.0122 47.9848 15.9382 47.9848 15.9382L48.0598 14.6882C49.9298 14.6882 54.9358 13.0682 54.9358 13.0682C54.9358 13.0682 53.2188 23.4432 53.0678 25.3572C52.9168 27.2712 53.1428 28.2992 54.0368 28.4462C54.4106 28.4733 54.7851 28.4044 55.1248 28.2462C55.6418 28.0512 56.0728 27.8572 56.2068 28.2992C56.4338 29.0362 54.1868 30.7992 51.4978 30.8732H51.3588C50.8322 30.9174 50.3041 30.8101 49.8365 30.564C49.3689 30.3179 48.9814 29.9432 48.7198 29.4842ZM5.83677 22.4612L4.65077 30.5802H0.0927734C0.0927734 30.5802 3.08377 11.3002 3.23377 10.1242C3.38377 8.9482 1.51277 9.0242 1.51277 9.0242L1.66277 7.4792C2.86277 7.6242 8.24177 6.0082 8.24177 6.0082L6.02277 21.1852C7.52277 19.5802 12.2568 14.5572 13.3458 13.8782C14.6388 13.0692 18.0458 13.4362 17.6408 13.8782C17.2475 14.6925 16.9744 15.5595 16.8298 16.4522H14.3988C12.5348 16.4522 9.53777 20.1312 9.53777 20.1312C9.53777 20.1312 12.3738 25.1312 13.2638 26.6062C14.1538 28.0812 15.6158 28.5942 16.2638 28.2992C16.9118 28.0042 17.4778 27.6362 17.6408 28.2992C17.8038 28.9622 17.0738 30.6542 12.7758 30.7992H12.6758C9.20377 30.8002 6.64677 24.6732 5.83677 22.4612ZM58.4298 30.5062C58.4298 30.5062 60.0028 20.7212 60.2988 18.4402C60.3567 18.1484 60.3562 17.848 60.2971 17.5564C60.2381 17.2647 60.1218 16.9878 59.9549 16.7414C59.7881 16.4951 59.5739 16.2844 59.325 16.1214C59.0761 15.9585 58.7973 15.8466 58.5048 15.7922L58.6548 14.6922C60.8096 14.3732 62.9351 13.881 65.0108 13.2202L64.8618 16.9002C64.8618 16.9002 65.8328 15.7222 66.5058 14.9142C67.4911 13.9941 68.7513 13.4232 70.0928 13.2892C71.0658 13.2892 71.4388 13.4362 71.1398 14.0252C70.8408 14.6142 70.6158 16.0852 70.3168 16.8252C70.1168 17.3052 69.5098 17.2522 68.7768 17.1992C68.3696 17.1576 67.9593 17.1559 67.5518 17.1942C66.7765 17.3565 66.0659 17.7425 65.5078 18.3045C64.9497 18.8665 64.5686 19.5798 64.4118 20.3562C64.2618 21.9762 63.1418 30.5102 63.1418 30.5102L58.4298 30.5062ZM50.8418 7.8402C50.8396 7.32551 50.9902 6.82175 51.2746 6.39274C51.559 5.96372 51.9643 5.62876 52.4392 5.43029C52.914 5.23181 53.4372 5.17875 53.9422 5.27783C54.4473 5.3769 54.9116 5.62366 55.2763 5.98683C55.641 6.35001 55.8898 6.81326 55.991 7.31791C56.0922 7.82256 56.0414 8.34589 55.8449 8.82162C55.6484 9.29735 55.3152 9.70407 54.8874 9.99025C54.4596 10.2764 53.9565 10.4292 53.4418 10.4292C52.7541 10.4292 52.0945 10.1568 51.6072 9.67157C51.1199 9.18636 50.8447 8.52786 50.8418 7.8402ZM82.0418 9.7812C82.0048 9.76309 81.964 9.75417 81.9228 9.7552C81.9251 9.70782 81.9392 9.66176 81.9638 9.6212C81.9865 9.58073 82.0068 9.539 82.0248 9.4962C82.0805 9.37146 82.127 9.24278 82.1638 9.1112C82.1978 8.98654 82.2351 8.8582 82.2758 8.7262L82.2928 8.7002V7.9792C82.2797 7.93889 82.2739 7.89655 82.2758 7.8542C82.2758 7.8162 82.2758 7.7752 82.2758 7.7282C82.2758 7.6812 82.2758 7.6492 82.2758 7.6282C82.275 7.59669 82.2808 7.56536 82.2928 7.5362C82.3051 7.51956 82.3165 7.50219 82.3268 7.4842C82.3393 7.46198 82.3503 7.43892 82.3598 7.4152C82.375 7.39006 82.3887 7.36401 82.4008 7.3372L82.4488 7.3032L82.4208 7.2852C82.5194 7.20495 82.6251 7.13398 82.7368 7.0732C82.8472 7.00925 82.9722 6.97482 83.0998 6.9732C83.1762 6.97312 83.2503 6.99924 83.3098 7.0472C83.3749 7.09849 83.4313 7.15994 83.4768 7.2292C83.5239 7.30197 83.5613 7.38065 83.5878 7.4632C83.6134 7.53724 83.6273 7.61486 83.6288 7.6932C83.6274 7.72206 83.624 7.75079 83.6188 7.7792C83.6118 7.8202 83.6038 7.8612 83.5948 7.9042C83.5858 7.9472 83.5778 7.9902 83.5708 8.0302C83.5638 8.0702 83.5588 8.1032 83.5538 8.1302C83.5458 8.2172 83.5378 8.3102 83.5298 8.4112C83.5236 8.51208 83.5099 8.61236 83.4888 8.7112C83.468 8.80765 83.4385 8.90203 83.4008 8.9932C83.3636 9.0835 83.3096 9.16595 83.2418 9.2362C83.217 9.25481 83.1933 9.27484 83.1708 9.2962L83.0488 9.4042C83.0058 9.4422 82.9658 9.4772 82.9298 9.5122C82.8938 9.5472 82.8738 9.5672 82.8688 9.5722L82.8418 9.6072C82.8278 9.6252 82.8118 9.6432 82.7948 9.6632L82.7438 9.7192C82.7278 9.7372 82.7178 9.7452 82.7128 9.7452C82.7078 9.7452 82.7078 9.7552 82.6968 9.7592H82.6728C82.6727 9.75256 82.6702 9.74618 82.6658 9.7412C82.6568 9.7292 82.6498 9.7242 82.6458 9.7242H82.6318C82.5868 9.7242 82.5318 9.7242 82.4588 9.7332C82.3982 9.7369 82.338 9.74526 82.2788 9.7582C82.2586 9.76839 82.2392 9.78009 82.2208 9.7932C82.2039 9.80517 82.1835 9.81115 82.1628 9.8102C82.1203 9.8108 82.0794 9.80083 82.0418 9.7812ZM69.5068 8.7002C69.4958 8.6822 69.4838 8.6642 69.4728 8.6442C69.4625 8.6249 69.4512 8.6062 69.4388 8.5882C69.4272 8.57054 69.4093 8.558 69.3888 8.5532H69.3688C69.3629 8.56151 69.3582 8.5706 69.3548 8.5802C69.3548 8.5912 69.3458 8.6012 69.3408 8.6102C69.3368 8.61656 69.3344 8.62375 69.3338 8.6312C69.3347 8.59595 69.3253 8.56119 69.3068 8.5312L69.2488 8.4402C69.2304 8.41293 69.2143 8.38416 69.2008 8.3542C69.1953 8.34081 69.1934 8.32625 69.1951 8.31191C69.1969 8.29756 69.2023 8.28389 69.2108 8.2722L69.1428 8.3152V8.3932C69.1416 8.43366 69.144 8.47414 69.1498 8.5142C69.154 8.51892 69.1564 8.52491 69.1568 8.5312C69.156 8.54074 69.1584 8.55026 69.1638 8.5582L69.1778 8.5922C69.1328 8.6782 69.0778 8.7132 69.0218 8.6922C68.9448 8.6742 68.8948 8.6112 68.8718 8.5012C68.8581 8.50387 68.8453 8.51008 68.8348 8.5192C68.8188 8.5312 68.8064 8.5312 68.7978 8.5192C68.7888 8.5192 68.7798 8.4992 68.7708 8.4582C68.768 8.43323 68.7587 8.40943 68.7438 8.3892C68.7444 8.38 68.7419 8.37087 68.7368 8.3632C68.7353 8.361 68.7334 8.35914 68.7312 8.35776C68.7289 8.35637 68.7264 8.3555 68.7238 8.3552C68.7238 8.3492 68.7008 8.3552 68.6698 8.3552C68.6388 8.3552 68.6198 8.3652 68.6158 8.3552H68.5928C68.5788 8.3552 68.5631 8.33654 68.5458 8.2992C68.5258 8.25746 68.5097 8.21393 68.4978 8.1692C68.4848 8.1202 68.4728 8.0692 68.4638 8.0302C68.457 8.00027 68.4526 7.96984 68.4508 7.9392C68.4058 7.9332 68.3668 7.8882 68.3358 7.8052C68.3016 7.71271 68.2775 7.61683 68.2638 7.5192C68.2481 7.41426 68.24 7.30831 68.2398 7.2022C68.2371 7.12368 68.2438 7.04513 68.2598 6.9682C68.2233 6.99105 68.1897 7.01825 68.1598 7.0492C68.1636 7.06226 68.1636 7.07615 68.1598 7.0892C68.1598 7.11854 68.1518 7.1302 68.1358 7.1242C68.1298 7.12236 68.1244 7.11884 68.1203 7.11406C68.1163 7.10927 68.1136 7.10343 68.1128 7.0972L68.0978 7.1162C68.0508 7.1802 67.9978 7.2462 67.9558 7.3162C67.9138 7.3862 67.8558 7.4542 67.8098 7.5162C67.7631 7.57946 67.7083 7.63628 67.6468 7.6852C67.6467 7.69727 67.6502 7.70908 67.6568 7.7192C67.6587 7.72417 67.6619 7.7285 67.6662 7.73169C67.6704 7.73488 67.6755 7.73679 67.6808 7.7372L67.7078 7.7192C67.715 7.7146 67.7232 7.71185 67.7318 7.7112C67.7405 7.71078 67.7489 7.70763 67.7558 7.7022C67.7723 7.67611 67.7929 7.65282 67.8168 7.6332C67.843 7.61688 67.8684 7.59919 67.8928 7.5802L67.8858 7.6672C67.86 7.70108 67.8301 7.73164 67.7968 7.7582C67.7428 7.8072 67.7028 7.8462 67.6748 7.8752C67.6354 7.90336 67.5919 7.92528 67.5458 7.9402C67.5008 7.9542 67.4548 7.9702 67.4068 7.9882C67.3607 8.00493 67.3165 8.02638 67.2748 8.0522C67.2337 8.07954 67.1972 8.1133 67.1668 8.1522C67.1906 8.14043 67.2158 8.13169 67.2418 8.1262C67.2688 8.1202 67.2998 8.1122 67.3418 8.1002L67.3348 8.1342C67.3351 8.15045 67.3309 8.16646 67.3226 8.18042C67.3142 8.19438 67.3022 8.20574 67.2878 8.2132C67.2592 8.22514 67.2294 8.23353 67.1988 8.2382C67.1678 8.24484 67.1374 8.25387 67.1078 8.2652C67.0928 8.27176 67.0799 8.28251 67.0709 8.29617C67.0619 8.30983 67.0569 8.32582 67.0568 8.3422L67.1108 8.3522C67.1449 8.34636 67.1784 8.33732 67.2108 8.3252C67.2648 8.3082 67.3218 8.2892 67.3808 8.2692C67.3808 8.2432 67.3908 8.2342 67.4038 8.2392C67.4076 8.24037 67.4112 8.2423 67.4143 8.24487C67.4174 8.24745 67.4199 8.25062 67.4218 8.2542C67.4638 8.2382 67.5048 8.2222 67.5428 8.2052L67.6428 8.1622L67.5548 8.1442C67.5541 8.1396 67.5552 8.13491 67.5578 8.13104C67.5604 8.12717 67.5643 8.12438 67.5688 8.1232C67.5734 8.12162 67.5774 8.11845 67.5799 8.11424C67.5825 8.11004 67.5835 8.10507 67.5828 8.1002C67.6008 8.0882 67.6428 8.0582 67.7088 8.0092C67.7748 7.9602 67.8428 7.9092 67.9158 7.8482L68.1088 7.6972C68.1373 7.6727 68.1681 7.65094 68.2008 7.6322C68.1942 7.67177 68.1803 7.70976 68.1598 7.7442C68.1368 7.7862 68.1118 7.8252 68.0848 7.8652C68.0598 7.903 68.0328 7.93939 68.0038 7.9742C67.9758 8.0062 67.9588 8.0282 67.9498 8.0392C67.929 8.03774 67.9081 8.04044 67.8884 8.04713C67.8686 8.05383 67.8504 8.06439 67.8348 8.0782C67.8078 8.10355 67.7849 8.1329 67.7668 8.1652L67.7158 8.2512C67.711 8.26208 67.7026 8.27098 67.6921 8.27644C67.6815 8.2819 67.6694 8.28358 67.6578 8.2812L67.6648 8.2372C67.6495 8.23372 67.6335 8.23439 67.6186 8.23914C67.6037 8.24389 67.5902 8.25254 67.5798 8.2642C67.5599 8.2864 67.5428 8.31091 67.5288 8.3372C67.5157 8.36276 67.501 8.38748 67.4848 8.4112C67.4783 8.42183 67.4686 8.43009 67.4571 8.43477C67.4455 8.43945 67.4328 8.4403 67.4208 8.4372C67.4105 8.43833 67.4001 8.43833 67.3898 8.4372C67.3788 8.4372 67.3678 8.4212 67.3598 8.3982C67.3556 8.41271 67.3483 8.4261 67.3382 8.43735C67.3282 8.44861 67.3157 8.45745 67.3018 8.4632C67.2773 8.472 67.2523 8.47902 67.2268 8.4842C67.203 8.48953 67.1801 8.49829 67.1588 8.5102C67.147 8.51972 67.1376 8.53177 67.1312 8.54546C67.1248 8.55914 67.1216 8.57409 67.1218 8.5892C67.1149 8.56923 67.1051 8.55037 67.0928 8.5332C67.0768 8.50454 67.0644 8.4902 67.0558 8.4902C67.0466 8.48748 67.0367 8.48765 67.0276 8.49069C67.0185 8.49373 67.0105 8.49949 67.0048 8.5072L66.9508 8.5632C66.9305 8.58348 66.9076 8.60096 66.8828 8.6152C66.8673 8.62266 66.8504 8.62694 66.8333 8.6278C66.8161 8.62866 66.7989 8.62608 66.7828 8.6202C66.7828 8.5902 66.7748 8.5732 66.7588 8.5672L66.7148 8.5492C66.6936 8.54546 66.6719 8.54546 66.6508 8.5492C66.6308 8.5492 66.6228 8.5772 66.6268 8.6242L66.5938 8.5892C66.5658 8.6122 66.5488 8.6182 66.5398 8.6062H66.4988L66.5398 8.5722L66.4678 8.5292C66.4504 8.51675 66.4306 8.5079 66.4098 8.5032L66.3768 8.5462C66.3711 8.54521 66.3654 8.54521 66.3598 8.5462C66.3519 8.54788 66.3437 8.54788 66.3358 8.5462H66.3088L66.3158 8.4682C66.3016 8.46282 66.2859 8.46282 66.2718 8.4682C66.2518 8.4742 66.2368 8.4682 66.2278 8.4592C66.2221 8.45896 66.2165 8.45727 66.2116 8.4543C66.2067 8.45133 66.2026 8.44717 66.1998 8.4422C66.1947 8.43394 66.1903 8.42524 66.1868 8.4162L66.1668 8.4082L65.9018 8.1652L65.8748 8.1572C65.766 8.09645 65.6635 8.0251 65.5688 7.9442C65.4672 7.85876 65.3801 7.75745 65.3108 7.6442C65.3063 7.63343 65.3039 7.62188 65.3038 7.6102C65.3053 7.60026 65.3053 7.59015 65.3038 7.5802C65.3007 7.57009 65.3007 7.55931 65.3038 7.5492L65.2528 7.4852L65.2018 7.4202L65.2498 7.3942C65.2128 7.4062 65.1858 7.3812 65.1678 7.3202C65.1482 7.25031 65.1335 7.17914 65.1238 7.1072C65.1124 7.02654 65.1044 6.9472 65.0998 6.8692C65.0999 6.82012 65.0976 6.77105 65.0928 6.7222C65.0748 6.59554 65.0591 6.45554 65.0458 6.3022C65.032 6.15059 65.0297 5.99816 65.0388 5.8462C65.0463 5.70264 65.0701 5.56039 65.1098 5.4222C65.1437 5.29731 65.2103 5.18374 65.3028 5.0932C65.3245 5.03504 65.353 4.97965 65.3878 4.9282L65.4998 4.7592C65.5358 4.7042 65.5688 4.6522 65.5998 4.6032C65.6262 4.56233 65.6435 4.51631 65.6508 4.4682C65.6528 4.46219 65.6529 4.45571 65.6511 4.44963C65.6493 4.44355 65.6457 4.43817 65.6408 4.4342C65.6317 4.42452 65.6216 4.41581 65.6108 4.4082C65.6965 4.37162 65.7713 4.31339 65.8278 4.2392C65.8843 4.16636 65.9479 4.09936 66.0178 4.0392L65.9428 4.0302C65.9516 3.99268 65.9702 3.95818 65.9968 3.9302C66.0296 3.89118 66.0658 3.85505 66.1048 3.8222C66.1414 3.79072 66.1813 3.76323 66.2238 3.7402C66.2486 3.7231 66.2788 3.71563 66.3088 3.7192L66.3288 3.7792H66.3698C66.3788 3.7852 66.3958 3.7792 66.4208 3.7582C66.4392 3.74416 66.4563 3.72842 66.4718 3.7112C66.4718 3.7172 66.4718 3.7112 66.4858 3.7022C66.486 3.69981 66.4867 3.69748 66.4879 3.6954C66.4891 3.69333 66.4908 3.69155 66.4928 3.6902L66.4518 3.6212C66.4692 3.6055 66.4907 3.59509 66.5138 3.5912C66.5385 3.58611 66.5617 3.57551 66.5818 3.5602H66.6228L66.5688 3.6472C66.6135 3.57939 66.6826 3.5314 66.7618 3.5132L66.9758 3.4832C66.9988 3.4782 67.0318 3.4702 67.0758 3.4622C67.1198 3.4542 67.1668 3.4442 67.2118 3.4322L67.3348 3.4012C67.3571 3.39511 67.3798 3.39077 67.4028 3.3882H67.4228C67.4283 3.38613 67.4343 3.38613 67.4398 3.3882C67.4452 3.39037 67.4513 3.39037 67.4568 3.3882C67.5372 3.40031 67.6164 3.41904 67.6938 3.4442C67.7748 3.4702 67.8548 3.4972 67.9308 3.5262C67.9576 3.53919 67.9809 3.55839 67.9988 3.5822C68.0172 3.60834 68.0435 3.62795 68.0738 3.6382C68.0958 3.6442 68.1098 3.6382 68.1148 3.6122C68.1198 3.5862 68.1228 3.5692 68.1278 3.5512C68.1418 3.42201 68.1441 3.29182 68.1348 3.1622C68.1254 3.00554 68.1141 2.84387 68.1008 2.6772C68.0874 2.51054 68.0744 2.35154 68.0618 2.2002C68.0473 2.07503 68.0393 1.9492 68.0378 1.8232C68.0378 1.7772 68.0298 1.6992 68.0278 1.5892C68.0258 1.4792 68.0278 1.3632 68.0208 1.2382C68.0138 1.1132 68.0208 0.997203 68.0138 0.888203C68.0068 0.779203 68.0138 0.697203 68.0138 0.645203V0.600203C68.0126 0.590237 68.0126 0.580168 68.0138 0.570203C68.0148 0.562907 68.0148 0.555498 68.0138 0.548203C68.0202 0.472175 68.0384 0.39761 68.0678 0.327203L68.1678 0.114203C68.2175 0.120679 68.2681 0.115895 68.3158 0.100203C68.3518 0.0862029 68.3868 0.0702029 68.4158 0.0532029C68.4537 0.0345129 68.4936 0.0200913 68.5348 0.0102029C68.6013 -0.000340942 68.6693 0.00237787 68.7348 0.0182029C68.774 0.0278288 68.8137 0.0351744 68.8538 0.0402029C68.8876 0.0445095 68.9211 0.0515322 68.9538 0.0612029C68.9764 0.108235 69.0108 0.148563 69.0538 0.178203C69.0986 0.203553 69.145 0.225934 69.1928 0.245203C69.2328 0.265275 69.2712 0.28834 69.3078 0.314203C69.3439 0.340881 69.3699 0.37892 69.3818 0.422203C69.432 0.715449 69.4547 1.01273 69.4498 1.3102C69.4451 1.61354 69.4474 1.91354 69.4568 2.2102C69.4714 2.22573 69.4811 2.2452 69.4848 2.2662C69.4932 2.28676 69.4957 2.30931 69.4918 2.3312C69.4918 2.3782 69.4918 2.4612 69.5018 2.5832C69.5118 2.7052 69.5168 2.8342 69.5258 2.9732C69.5348 3.1122 69.5438 3.2432 69.5528 3.3672C69.5618 3.4912 69.5688 3.5802 69.5728 3.6312C69.6007 3.68503 69.6157 3.74459 69.6168 3.8052C69.6168 3.8682 69.6168 3.9352 69.6168 4.0052C69.6168 4.0752 69.6118 4.1422 69.6068 4.2052C69.6021 4.26727 69.6044 4.32967 69.6138 4.3912V6.9392C69.5951 7.01439 69.5951 7.09302 69.6138 7.1682C69.6343 7.24305 69.64 7.32116 69.6308 7.3982C69.6284 7.42947 69.6169 7.45936 69.5978 7.4842C69.579 7.50925 69.5691 7.53989 69.5698 7.5712C69.566 7.62792 69.5707 7.68488 69.5838 7.7402C69.5978 7.8072 69.6138 7.8702 69.6308 7.9312C69.6478 7.9922 69.6658 8.0432 69.6818 8.0872C69.6919 8.11114 69.6999 8.1359 69.7058 8.1612C69.7066 8.19479 69.6944 8.2274 69.6718 8.2522C69.6538 8.2662 69.6288 8.2882 69.5978 8.3172C69.6163 8.34033 69.6302 8.36681 69.6388 8.3952L69.6718 8.4812V8.5072C69.6619 8.50683 69.6521 8.50903 69.6433 8.51359C69.6346 8.51815 69.6271 8.52491 69.6218 8.5332C69.6096 8.55437 69.5999 8.57685 69.5928 8.6002C69.5839 8.6256 69.5773 8.65169 69.5728 8.6782C69.569 8.69666 69.5666 8.71538 69.5658 8.7342C69.5541 8.73297 69.5428 8.72931 69.5327 8.72345C69.5225 8.71759 69.5137 8.70967 69.5068 8.7002ZM69.0618 8.5002C69.0618 8.5292 69.0618 8.5432 69.0758 8.5432C69.0898 8.5432 69.1118 8.5372 69.1168 8.5082C69.1218 8.4792 69.1168 8.4622 69.0888 8.4572C69.0608 8.4522 69.0668 8.4702 69.0618 8.5002ZM69.4798 8.4482C69.4798 8.4772 69.4868 8.4942 69.5098 8.5002C69.5328 8.5062 69.5318 8.4942 69.5338 8.4652C69.5358 8.4362 69.5338 8.4202 69.5168 8.4142H69.5068C69.4928 8.4112 69.4818 8.4232 69.4798 8.4472V8.4482ZM66.2418 8.4352C66.2418 8.4552 66.2418 8.4652 66.2518 8.4652C66.2618 8.4652 66.2728 8.4652 66.2758 8.4442C66.2788 8.4232 66.2758 8.4112 66.2588 8.4052C66.2418 8.3992 66.2448 8.4142 66.2418 8.4342V8.4352ZM69.5268 8.3702C69.5268 8.3992 69.5268 8.4172 69.5438 8.4222C69.5608 8.4272 69.5788 8.4172 69.5808 8.3872C69.5828 8.3572 69.5728 8.3422 69.5498 8.3352H69.5438C69.5348 8.3332 69.5288 8.3462 69.5268 8.3702ZM69.2148 8.3182C69.2148 8.3472 69.2148 8.3612 69.2318 8.3612C69.2488 8.3612 69.2538 8.3552 69.2588 8.3262C69.2638 8.2972 69.2588 8.2812 69.2458 8.2742C69.2328 8.2672 69.2168 8.2892 69.2148 8.3182ZM68.6648 8.3002C68.6648 8.3292 68.6648 8.3462 68.6818 8.3532C68.6988 8.3602 68.7168 8.3472 68.7188 8.3182C68.7208 8.2892 68.7098 8.2722 68.6878 8.2662H68.6828C68.6728 8.2642 68.6658 8.2762 68.6648 8.3002ZM68.6108 8.3092C68.6108 8.32587 68.6141 8.3342 68.6208 8.3342C68.6528 8.3462 68.6548 8.3292 68.6278 8.2832C68.6188 8.2832 68.6128 8.2912 68.6108 8.3092ZM66.9688 8.2612V8.2672L67.0228 8.2482H67.0128L66.9928 8.2392C66.9838 8.2382 66.9758 8.2462 66.9688 8.2612ZM67.8688 7.9532C67.8688 7.9822 67.8688 7.9992 67.8958 8.0052C67.9228 8.0112 67.9118 7.9912 67.9158 7.9622C67.9198 7.9332 67.9158 7.9192 67.9088 7.9192H67.8978C67.8818 7.9172 67.8718 7.9292 67.8688 7.9532ZM69.2628 7.5532C69.2628 7.5732 69.2688 7.5832 69.2868 7.5832C69.3048 7.5832 69.3148 7.5832 69.3168 7.5612C69.3186 7.55286 69.3171 7.54414 69.3126 7.53686C69.3082 7.52959 69.301 7.52433 69.2928 7.5222C69.2748 7.5192 69.2648 7.5302 69.2618 7.5502L69.2628 7.5532ZM67.6928 7.4292C67.6788 7.4432 67.6768 7.4572 67.6858 7.4682C67.6948 7.4792 67.7068 7.4802 67.7198 7.4682C67.7328 7.4562 67.7358 7.4452 67.7268 7.4342C67.7178 7.4232 67.7168 7.4202 67.7108 7.4202C67.7073 7.42043 67.704 7.42135 67.7009 7.42289C67.6978 7.42444 67.695 7.42658 67.6928 7.4292ZM67.2328 4.6002C66.971 4.73106 66.752 4.93403 66.6018 5.1852C66.4352 5.46054 66.3326 5.76985 66.3018 6.0902C66.2634 6.43816 66.3087 6.79025 66.4338 7.1172C66.4928 7.2102 66.5398 7.2862 66.5768 7.3472C66.5946 7.3771 66.6192 7.40243 66.6485 7.42117C66.6778 7.43992 66.7112 7.45157 66.7458 7.4552C66.7694 7.46587 66.7949 7.47165 66.8208 7.4722L67.2618 7.2992H67.2928C67.3238 7.2642 67.3568 7.2332 67.3928 7.1992C67.4185 7.1722 67.4455 7.1465 67.4738 7.1222C67.4985 7.10136 67.5213 7.07826 67.5418 7.0532C67.5608 7.03844 67.5789 7.0224 67.5958 7.0052C67.6228 6.9802 67.6508 6.9502 67.6808 6.9182C67.7108 6.8862 67.7358 6.8582 67.7588 6.8322C67.7727 6.81491 67.7885 6.79915 67.8058 6.7852L67.8398 6.7422C67.8507 6.735 67.8592 6.72449 67.8638 6.7122C67.8689 6.70021 67.8772 6.68984 67.8878 6.6822L67.9088 6.7162V6.7592C67.8983 6.77167 67.8869 6.78337 67.8748 6.7942C67.861 6.8062 67.8445 6.81477 67.8268 6.8192V6.8542C67.8532 6.85783 67.8792 6.86351 67.9048 6.8712C67.9302 6.87928 67.9563 6.8853 67.9828 6.8892C68.0017 6.90537 68.0222 6.91976 68.0438 6.9322C68.0808 6.9552 68.1028 6.9612 68.1118 6.9492C68.1428 6.9382 68.1698 6.8972 68.1898 6.8282C68.2098 6.7592 68.2248 6.7012 68.2338 6.6552C68.2342 6.63286 68.2375 6.61066 68.2438 6.5892C68.2475 6.57856 68.2471 6.5669 68.2427 6.55652C68.2382 6.54615 68.2301 6.53783 68.2198 6.5332L68.2678 6.1182L68.2478 4.8882C68.2495 4.80264 68.2448 4.71707 68.2338 4.6322C68.2248 4.5772 68.1818 4.5402 68.1048 4.5242C67.9898 4.4943 67.8716 4.47885 67.7528 4.4782C67.5722 4.47673 67.3939 4.51857 67.2328 4.6002ZM67.7488 7.3162C67.7488 7.3452 67.7488 7.3592 67.7658 7.3592C67.7828 7.3592 67.7948 7.3532 67.7988 7.3252C67.8028 7.2972 67.7988 7.2792 67.7718 7.2722C67.7448 7.2652 67.7508 7.2922 67.7488 7.3202V7.3162ZM69.5488 7.2472C69.5459 7.24906 69.5435 7.25157 69.5418 7.25452C69.54 7.25747 69.539 7.26079 69.5388 7.2642C69.5288 7.3112 69.5388 7.3372 69.5718 7.3432V7.3122C69.5706 7.29902 69.5683 7.28597 69.5648 7.2732C69.5602 7.25787 69.5602 7.24153 69.5648 7.2262C69.5611 7.23572 69.5553 7.24427 69.5478 7.2512L69.5488 7.2472ZM67.8178 7.2772C67.8178 7.2982 67.8178 7.3112 67.8348 7.3162C67.8518 7.3212 67.8698 7.3162 67.8718 7.2952C67.8738 7.2742 67.8638 7.2622 67.8408 7.2562H67.8328C67.8238 7.2582 67.8188 7.2662 67.8168 7.2812L67.8178 7.2772ZM67.8888 7.2122L67.9228 7.1772H67.8928L67.8888 7.2122ZM67.9598 7.1432C67.9598 7.1722 67.9688 7.1902 67.9908 7.1952C68.0128 7.2002 68.0048 7.1812 68.0078 7.1522C68.0108 7.1232 68.0078 7.1082 67.9978 7.1082H67.9888C67.9708 7.1112 67.9618 7.1232 67.9588 7.1472L67.9598 7.1432ZM67.7668 7.1432C67.7618 7.1722 67.7668 7.1902 67.7798 7.1952C67.7928 7.2002 67.8158 7.1822 67.8208 7.1562C67.8224 7.15128 67.8231 7.14607 67.8226 7.14089C67.8221 7.13572 67.8205 7.13071 67.818 7.12618C67.8154 7.12165 67.812 7.11771 67.8078 7.11461C67.8036 7.11152 67.7988 7.10933 67.7938 7.1082H67.7878C67.7768 7.1112 67.7698 7.1232 67.7668 7.1472V7.1432ZM68.0138 7.0222C68.0138 7.0452 68.0138 7.0572 68.0238 7.0572C68.0338 7.0572 68.0518 7.0572 68.0538 7.0312C68.0558 7.0052 68.0488 7.0002 68.0308 7.0002C68.0198 7.0002 68.0158 7.0072 68.0138 7.0262V7.0222ZM67.8508 7.0002C67.8508 7.0232 67.8508 7.0352 67.8678 7.0352C67.8848 7.0352 67.9028 7.0352 67.9048 7.0092C67.9056 7.00434 67.9055 6.99935 67.9044 6.99453C67.9033 6.98972 67.9012 6.98517 67.8983 6.98116C67.8955 6.97715 67.8918 6.97377 67.8876 6.9712C67.8834 6.96863 67.8787 6.96693 67.8738 6.9662C67.8608 6.9652 67.8528 6.9772 67.8508 7.0002ZM67.7618 6.9692C67.7618 6.9902 67.7618 6.9942 67.7788 6.9822C67.7878 6.9882 67.7928 6.9822 67.7928 6.9742C67.7929 6.96916 67.7917 6.96418 67.7892 6.95978C67.7868 6.95538 67.7831 6.95172 67.7788 6.9492H67.7728C67.7678 6.9462 67.7638 6.9542 67.7618 6.9692ZM65.1358 6.7612C65.1358 6.7822 65.1358 6.7912 65.1528 6.7912C65.1698 6.7912 65.1688 6.7592 65.1598 6.7302C65.1468 6.7312 65.1388 6.7412 65.1358 6.7612ZM65.1228 6.6002C65.1228 6.6232 65.1228 6.6292 65.1328 6.6182C65.1428 6.6072 65.1548 6.6182 65.1568 6.6052C65.1588 6.5922 65.1568 6.5892 65.1408 6.5832C65.1248 6.5772 65.1348 6.5782 65.1328 6.5782C65.1308 6.5782 65.1238 6.5862 65.1228 6.6002ZM65.0928 6.4452C65.0928 6.4742 65.0978 6.4882 65.1168 6.4882C65.1358 6.4882 65.1388 6.4822 65.1438 6.4532C65.1488 6.4242 65.1438 6.4072 65.1238 6.4022C65.1038 6.3972 65.0978 6.4172 65.0928 6.4452ZM65.0928 6.2452C65.0928 6.2802 65.0928 6.2922 65.0998 6.2802C65.1068 6.27742 65.1128 6.2726 65.1171 6.26637C65.1214 6.26013 65.1237 6.25276 65.1238 6.2452C65.1262 6.23741 65.1264 6.2291 65.1245 6.22118C65.1226 6.21325 65.1185 6.206 65.1128 6.2002C65.1128 6.2002 65.1028 6.2162 65.0988 6.2452H65.0928ZM65.0758 6.1282C65.0758 6.1432 65.0758 6.1502 65.0858 6.1502C65.0958 6.1502 65.1018 6.1352 65.0928 6.1072C65.0928 6.1072 65.0838 6.1142 65.0818 6.1292L65.0758 6.1282ZM65.0588 5.9072C65.0588 5.9362 65.0588 5.9532 65.0858 5.9592C65.1128 5.9652 65.1018 5.9532 65.1058 5.9252C65.1098 5.8972 65.1058 5.8792 65.0988 5.8722H65.0928C65.0788 5.8722 65.0688 5.8842 65.0648 5.9082L65.0588 5.9072ZM68.0418 3.8752C68.078 3.88886 68.1155 3.8989 68.1538 3.9052C68.1628 3.8472 68.1538 3.8172 68.1258 3.8142C68.1008 3.81184 68.0761 3.80749 68.0518 3.8012C68.0237 3.78891 67.9934 3.78277 67.9628 3.7832C67.9675 3.8048 67.9779 3.82477 67.9928 3.84109C68.0077 3.85741 68.0267 3.86952 68.0478 3.8762L68.0418 3.8752ZM66.1688 3.8572C66.1688 3.8832 66.1688 3.8992 66.1858 3.9052C66.2028 3.9112 66.2018 3.8922 66.2058 3.8662C66.2098 3.8402 66.2058 3.8262 66.1988 3.8262H66.1928C66.1838 3.8272 66.1768 3.8372 66.1748 3.8592L66.1688 3.8572ZM68.1228 3.6452C68.1228 3.6742 68.1228 3.6882 68.1398 3.6882C68.1568 3.6882 68.1618 3.6822 68.1638 3.6532C68.1658 3.6242 68.1638 3.6082 68.1468 3.6012C68.1298 3.5942 68.1318 3.6182 68.1288 3.6462L68.1228 3.6452ZM80.4568 8.6452C80.4517 8.63788 80.4493 8.62908 80.4498 8.6202C80.4329 8.57978 80.4048 8.54507 80.3688 8.5202C80.3434 8.5063 80.3155 8.49747 80.2868 8.4942L80.2018 8.4852C80.1658 8.48027 80.1316 8.46691 80.1018 8.4462C80.0979 8.44465 80.0948 8.44182 80.0928 8.4382C80.0872 8.43738 80.0819 8.43534 80.0773 8.43223C80.0726 8.42912 80.0687 8.42501 80.0658 8.4202C80.0648 8.41123 80.0624 8.40245 80.0588 8.3942L80.0458 8.3602C80.0373 8.34361 80.0306 8.32618 80.0258 8.3082C80.0028 8.2902 79.9608 8.2622 79.8998 8.2212C79.8624 8.1944 79.8226 8.17129 79.7808 8.1522C79.7733 8.07959 79.7561 8.00829 79.7298 7.9402C79.7047 7.87654 79.6921 7.80863 79.6928 7.7402C79.7241 7.5502 79.7534 7.3132 79.7808 7.0292C79.8096 6.70371 79.8176 6.37671 79.8048 6.0502C79.7923 5.63998 79.7549 5.23088 79.6928 4.8252C79.6158 4.34263 79.5035 3.86635 79.3568 3.4002C79.3577 3.32049 79.3644 3.24096 79.3768 3.1622C79.3849 3.09145 79.4081 3.02327 79.4448 2.9622C79.4498 2.95488 79.4523 2.94608 79.4518 2.9372C79.4522 2.92491 79.4546 2.91276 79.4588 2.9012C79.4591 2.88955 79.4615 2.87804 79.4658 2.8672C79.4698 2.81593 79.486 2.76636 79.5132 2.72268C79.5403 2.679 79.5776 2.64248 79.6218 2.6162C79.6951 2.57814 79.7762 2.55761 79.8588 2.5562H79.8868C79.8895 2.55572 79.892 2.55467 79.8943 2.55312C79.8965 2.55157 79.8984 2.54955 79.8998 2.5472C79.9631 2.54016 80.0271 2.54868 80.0864 2.57204C80.1457 2.59539 80.1983 2.63286 80.2398 2.6812C80.3093 2.7865 80.3575 2.90438 80.3818 3.0282C80.4128 3.1702 80.4448 3.3282 80.4818 3.5002C80.5157 3.67991 80.5796 3.85264 80.6708 4.0112H80.6918C80.7672 3.85996 80.8569 3.71631 80.9598 3.5822C81.0732 3.4325 81.1968 3.29083 81.3298 3.1582C81.4647 3.02259 81.6102 2.89787 81.7648 2.7852C81.9059 2.67981 82.057 2.58839 82.2158 2.5122C82.3493 2.44726 82.4925 2.4047 82.6398 2.3862C82.7636 2.36987 82.8895 2.39259 82.9998 2.4512C83.0279 2.44595 83.0567 2.44595 83.0848 2.4512C83.1048 2.4572 83.1148 2.4832 83.1148 2.5302C83.1563 2.53008 83.1972 2.51978 83.2338 2.5002C83.2723 2.4801 83.3153 2.46979 83.3588 2.4702C83.3535 2.53908 83.3715 2.60773 83.4098 2.6652C83.4388 2.7068 83.4772 2.74104 83.5218 2.7652C83.5592 2.78416 83.5976 2.80118 83.6368 2.8162C83.6728 2.8322 83.6908 2.8522 83.6908 2.8822C83.6763 2.8853 83.6627 2.89157 83.6509 2.90056C83.6392 2.90955 83.6296 2.92104 83.6228 2.9342L83.6838 2.9772L83.6428 3.0202C83.6738 3.0142 83.6928 3.0202 83.6968 3.0332C83.7023 3.05746 83.7047 3.08234 83.7038 3.1072C83.7038 3.1362 83.7038 3.1532 83.6938 3.1592C83.6838 3.1652 83.6858 3.1802 83.6938 3.2022V3.2202C83.6938 3.2322 83.7058 3.2462 83.7278 3.2632C83.7454 3.27561 83.7615 3.29004 83.7758 3.3062V3.3412L83.7178 3.3842C83.6888 3.4072 83.6668 3.4242 83.6538 3.4372C83.6444 3.44779 83.6344 3.4578 83.6238 3.4672C83.6248 3.45857 83.6248 3.44984 83.6238 3.4412C83.6238 3.4152 83.6191 3.4022 83.6098 3.4022C83.5878 3.4022 83.5758 3.4152 83.5758 3.4412C83.5758 3.4672 83.5858 3.4782 83.6058 3.4802C83.5633 3.51332 83.5169 3.54119 83.4678 3.5632C83.3834 3.60189 83.2948 3.63074 83.2038 3.6492C83.1077 3.67 83.01 3.68172 82.9118 3.6842C82.8229 3.68789 82.7339 3.6805 82.6468 3.6622C82.6431 3.67552 82.637 3.68805 82.6288 3.6992C82.6288 3.7232 82.6188 3.7492 82.6128 3.7752L82.6028 3.8182C82.6098 3.8302 82.6148 3.8412 82.6198 3.8522L82.5918 3.8602L82.5858 3.8842C82.5867 3.87723 82.5867 3.87017 82.5858 3.8632L82.5558 3.8752V3.8552C82.5506 3.85743 82.5462 3.86105 82.5431 3.86564C82.5399 3.87023 82.5381 3.87562 82.5378 3.8812L82.5018 3.8992L82.5098 3.9302H82.4898C82.482 3.92714 82.4746 3.92311 82.4678 3.9182C82.3997 3.96184 82.3364 4.01245 82.2788 4.0692C82.1369 4.20831 82.0086 4.36067 81.8958 4.5242C81.7589 4.71878 81.6363 4.92298 81.5288 5.1352C81.4158 5.35525 81.3215 5.58439 81.2468 5.8202L80.9518 8.0002C80.9351 8.0628 80.9237 8.12669 80.9178 8.1912C80.9144 8.24192 80.9077 8.29236 80.8978 8.3422C80.8904 8.37884 80.8743 8.41314 80.8508 8.4422C80.8355 8.45652 80.8173 8.46741 80.7975 8.47413C80.7776 8.48086 80.7566 8.48327 80.7358 8.4812H80.6818C80.6508 8.4812 80.6298 8.4622 80.6208 8.4152C80.6001 8.43525 80.5858 8.46101 80.5798 8.4892C80.5798 8.5142 80.5718 8.5382 80.5698 8.5582C80.5672 8.57824 80.56 8.59741 80.5488 8.6142C80.5402 8.62431 80.5291 8.63208 80.5167 8.6368C80.5043 8.64152 80.4909 8.64303 80.4778 8.6412C80.4758 8.64306 80.4734 8.64447 80.4708 8.64534C80.4682 8.6462 80.4655 8.6465 80.4628 8.6462L80.4568 8.6452ZM81.2928 5.4792C81.2928 5.5052 81.3018 5.5182 81.3198 5.5182C81.3378 5.5182 81.3398 5.5052 81.3398 5.4792C81.3398 5.4532 81.3328 5.4402 81.3198 5.4402C81.3068 5.4402 81.2928 5.4532 81.2928 5.4792ZM81.3468 5.3542C81.3338 5.3542 81.3268 5.3682 81.3268 5.3972C81.3268 5.4262 81.3338 5.4402 81.3468 5.4402C81.3598 5.4402 81.3668 5.4172 81.3668 5.3882C81.3668 5.3592 81.3668 5.3522 81.3528 5.3522L81.3468 5.3542ZM81.4758 5.1022C81.4898 5.1142 81.5008 5.1142 81.5098 5.1022C81.5188 5.0902 81.5038 5.0682 81.4928 5.0682C81.4818 5.0682 81.4748 5.0792 81.4748 5.1002L81.4758 5.1022ZM82.0928 4.0582C82.0838 4.0722 82.0838 4.0832 82.0928 4.0892C82.1018 4.0952 82.0928 4.1022 82.1068 4.0892C82.1088 4.08725 82.1104 4.08491 82.1114 4.08234C82.1125 4.07976 82.1131 4.077 82.1131 4.0742C82.1131 4.07141 82.1125 4.06864 82.1114 4.06607C82.1104 4.06349 82.1088 4.06116 82.1068 4.0592C82.1068 4.0492 82.1068 4.0452 82.1068 4.0452C82.1068 4.0452 82.0928 4.0512 82.0928 4.0582ZM80.3008 3.9842C80.3008 4.0142 80.3008 4.0252 80.3138 4.0192C80.3268 4.0132 80.3418 4.0052 80.3418 3.9762C80.3418 3.9472 80.3328 3.9332 80.3138 3.9332C80.2948 3.9332 80.3008 3.9552 80.3008 3.9842ZM82.2208 3.9842L82.2138 3.9002H82.1858C82.1858 3.91582 82.1888 3.93129 82.1948 3.94571C82.2009 3.96013 82.2097 3.97322 82.2208 3.9842ZM81.9208 3.7762C81.9208 3.7882 81.9278 3.7882 81.9408 3.7762C81.9538 3.7642 81.9348 3.7502 81.9238 3.7502C81.9128 3.7502 81.9068 3.7592 81.9158 3.7762H81.9208ZM82.0088 3.7332C82.0088 3.7622 82.0158 3.7742 82.0288 3.7682C82.0418 3.7622 82.0488 3.7542 82.0488 3.7252C82.0488 3.6962 82.0418 3.6822 82.0288 3.6822C82.0158 3.6822 82.0038 3.7002 82.0038 3.7332H82.0088ZM82.0598 3.6382C82.0598 3.6672 82.0718 3.6812 82.0898 3.6812C82.1078 3.6812 82.0928 3.6662 82.0928 3.6382C82.0928 3.6102 82.0848 3.5952 82.0758 3.5952C82.0668 3.5952 82.0518 3.6092 82.0548 3.6382H82.0598ZM82.0228 3.5172C82.0088 3.5172 82.0028 3.5312 82.0028 3.5602C82.0028 3.5892 82.0098 3.6012 82.0228 3.5952C82.0358 3.5892 82.0428 3.5812 82.0428 3.5522C82.0428 3.5232 82.0428 3.5162 82.0288 3.5162L82.0228 3.5172ZM82.5658 3.5432C82.5658 3.5542 82.5658 3.5602 82.5758 3.5602C82.5858 3.5602 82.5858 3.5542 82.5858 3.5432C82.5858 3.5322 82.5918 3.5252 82.5758 3.5252C82.5598 3.5252 82.5508 3.5312 82.5608 3.5432H82.5658ZM83.5158 3.4742C83.5338 3.5202 83.5468 3.5202 83.5568 3.4742C83.5546 3.4686 83.5508 3.46383 83.5457 3.46059C83.5407 3.45735 83.5348 3.45581 83.5288 3.4562C83.5108 3.4562 83.5058 3.4622 83.5108 3.4732L83.5158 3.4742ZM82.6538 3.4472C82.6538 3.4712 82.6538 3.4822 82.6678 3.4822C82.6818 3.4822 82.6948 3.4712 82.6948 3.4472C82.6948 3.4232 82.6858 3.4132 82.6678 3.4132C82.6498 3.4132 82.6488 3.4242 82.6488 3.4462L82.6538 3.4472ZM82.6368 3.3782C82.6298 3.4012 82.6228 3.4282 82.6128 3.4562C82.6301 3.43517 82.6419 3.41004 82.6468 3.3832C82.6498 3.36415 82.6544 3.34541 82.6608 3.3272C82.6478 3.34228 82.6377 3.35955 82.6308 3.3782H82.6368ZM82.1048 3.3442C82.1048 3.3672 82.1138 3.3782 82.1318 3.3782C82.1498 3.3782 82.1458 3.3672 82.1458 3.3442C82.1458 3.3212 82.1388 3.3102 82.1258 3.3102C82.1128 3.3102 82.0988 3.3202 82.0988 3.3432L82.1048 3.3442ZM82.3228 3.3002C82.3228 3.3122 82.3228 3.3172 82.3358 3.3172C82.3488 3.3172 82.3498 3.3122 82.3498 3.3002C82.3503 3.29782 82.3502 3.29535 82.3496 3.293C82.3489 3.29065 82.3477 3.28849 82.346 3.28672C82.3444 3.28495 82.3423 3.28361 82.34 3.28282C82.3376 3.28203 82.3352 3.28182 82.3328 3.2822C82.3218 3.2822 82.3188 3.2882 82.3228 3.3002ZM83.0558 3.2222L83.1168 3.2132L83.1098 3.1532L83.0558 3.2222ZM83.6088 3.1532C83.6088 3.1822 83.6158 3.1962 83.6258 3.1962C83.6358 3.1962 83.6378 3.1822 83.6358 3.1532C83.6338 3.1242 83.6278 3.1102 83.6188 3.1102C83.6098 3.1102 83.6068 3.1242 83.6088 3.1522V3.1532ZM83.1638 3.0802C83.1638 3.1122 83.1748 3.1272 83.1978 3.1272C83.2208 3.1272 83.2108 3.1112 83.2108 3.0802C83.2108 3.0492 83.2108 3.0322 83.1978 3.0322C83.1848 3.0322 83.1648 3.0472 83.1648 3.0792L83.1638 3.0802ZM82.6918 3.0802C82.6918 3.1122 82.7018 3.1272 82.7158 3.1272C82.7298 3.1272 82.7418 3.1112 82.7398 3.0802C82.7378 3.0492 82.7278 3.0322 82.7088 3.0322C82.6898 3.0322 82.6928 3.0472 82.6928 3.0792L82.6918 3.0802ZM82.4098 3.0922L82.4638 3.0402H82.4298L82.4098 3.0922ZM83.4508 3.0322C83.4398 3.0502 83.4378 3.0582 83.4508 3.0582C83.4638 3.0582 83.4688 3.0692 83.4788 3.0582C83.4829 3.05255 83.4852 3.04572 83.4852 3.0387C83.4852 3.03169 83.4829 3.02486 83.4788 3.0192C83.4788 3.0192 83.4608 3.0182 83.4528 3.0312L83.4508 3.0322ZM83.2988 3.0582H83.3598V3.0232L83.2988 3.0582ZM83.5358 3.0402H83.5968L83.5628 3.0142L83.5358 3.0402ZM83.3998 2.9802C83.3998 3.0092 83.4068 3.0232 83.4198 3.0232C83.4328 3.0232 83.4398 3.0082 83.4398 2.9802C83.4398 2.9522 83.4328 2.9372 83.4198 2.9372C83.4068 2.9372 83.4018 2.9502 83.4018 2.9792L83.3998 2.9802ZM83.2388 2.8002C83.2453 2.82137 83.2497 2.84315 83.2518 2.8652C83.2376 2.89078 83.2219 2.91549 83.2048 2.9392C83.1922 2.96172 83.1763 2.98228 83.1578 3.0002H83.2318C83.2822 2.9895 83.3305 2.97058 83.3748 2.9442C83.4302 2.91568 83.4736 2.8681 83.4968 2.8102C83.4058 2.8392 83.3488 2.8412 83.3268 2.8102C83.2956 2.74099 83.2838 2.66459 83.2928 2.5892C83.2611 2.59469 83.2305 2.6048 83.2018 2.6192C83.1674 2.63942 83.142 2.67195 83.1308 2.7102C83.1668 2.7442 83.1838 2.7592 83.1818 2.7532C83.1798 2.7472 83.1938 2.7442 83.2258 2.7442C83.2286 2.76319 83.2329 2.78191 83.2388 2.8002ZM83.5028 2.9262H83.5638V2.8932L83.5028 2.9262ZM81.9928 2.6852C81.9838 2.6852 81.9788 2.7002 81.9788 2.7282C81.9788 2.7562 81.9788 2.7712 81.9928 2.7712C82.0068 2.7712 82.0198 2.7482 82.0198 2.7182C82.0198 2.6882 82.0138 2.6822 82.0008 2.6822L81.9928 2.6852ZM82.9928 2.5852C82.9887 2.59919 82.9863 2.61363 82.9858 2.6282H83.0058C83.0178 2.62481 83.029 2.61903 83.0388 2.6112L83.0668 2.5932C83.0645 2.59082 83.0627 2.588 83.0615 2.58491C83.0603 2.58182 83.0597 2.57852 83.0598 2.5752C83.0595 2.56889 83.057 2.56288 83.0528 2.5582L83.0388 2.5402H82.9978C82.9977 2.55402 82.9961 2.56778 82.9928 2.5812V2.5852ZM77.8198 8.4692C77.7696 8.44101 77.7209 8.4103 77.6738 8.3772C77.6256 8.34357 77.5793 8.30753 77.5348 8.2692C77.5048 8.24758 77.4805 8.21913 77.4638 8.1862L77.4778 8.1522L77.4908 8.1182C77.4278 8.1182 77.3728 8.0672 77.3248 7.9662C77.2804 7.87242 77.2429 7.77549 77.2128 7.6762C77.1852 7.69584 77.1591 7.71757 77.1348 7.7412L77.0348 7.8412C76.9988 7.8762 76.9658 7.9102 76.9348 7.9412C76.9171 7.96479 76.8954 7.9851 76.8708 8.0012C76.8528 8.0132 76.8218 8.0352 76.7788 8.0662C76.7358 8.0972 76.6888 8.1302 76.6368 8.1662C76.5848 8.2022 76.5368 8.2292 76.4908 8.2612C76.4448 8.2932 76.4138 8.3152 76.3908 8.3262H76.2278C76.1692 8.32753 76.1114 8.31264 76.0608 8.2832C76.0129 8.25397 75.9578 8.23872 75.9018 8.2392H75.8928C75.8838 8.2392 75.8728 8.2462 75.8598 8.2612C75.8468 8.2762 75.8348 8.2882 75.8258 8.3002V8.2382C75.8153 8.2519 75.8039 8.26493 75.7918 8.2772C75.7838 8.28875 75.7716 8.29666 75.7578 8.2992C75.6099 8.30137 75.4669 8.247 75.3578 8.1472C75.2367 8.03597 75.1385 7.90212 75.0688 7.7532C74.9835 7.57859 74.9164 7.39561 74.8688 7.2072C74.8164 7.0047 74.7757 6.79936 74.7468 6.5922C74.7174 6.3842 74.6971 6.1842 74.6858 5.9922C74.6738 5.8022 74.6688 5.6402 74.6688 5.5072C74.6688 5.5012 74.6738 5.4692 74.6858 5.4072C74.6978 5.3452 74.7068 5.3172 74.7158 5.3072C74.7639 4.93741 74.8307 4.57028 74.9158 4.2072C74.9832 3.90791 75.098 3.62131 75.2558 3.3582C75.3956 3.12807 75.5931 2.93847 75.8288 2.8082C76.1069 2.66624 76.4167 2.59741 76.7288 2.6082C76.7644 2.61029 76.7997 2.61463 76.8348 2.6212C76.8868 2.6302 76.9418 2.6412 77.0008 2.6562C77.0537 2.66875 77.1058 2.68444 77.1568 2.7032C77.2018 2.7212 77.2268 2.7352 77.2318 2.7462L77.5098 2.8062C77.5203 2.81975 77.5296 2.83413 77.5378 2.8492C77.5457 2.86228 77.5505 2.87699 77.5518 2.8922C77.5511 2.89965 77.5487 2.90684 77.5448 2.9132C77.5448 2.9222 77.5358 2.9322 77.5308 2.9442C77.5226 2.95459 77.5159 2.96602 77.5108 2.9782C77.5108 2.9962 77.5448 3.0062 77.6108 3.0082C77.6877 3.01274 77.764 3.02445 77.8388 3.0432C77.923 3.06345 78.0012 3.10357 78.0668 3.1602C78.1028 3.19618 78.1304 3.23965 78.1477 3.28753C78.165 3.33541 78.1715 3.38652 78.1668 3.4372H78.2348C78.2438 3.4372 78.2548 3.4672 78.2678 3.5282C78.2808 3.5892 78.2928 3.6362 78.3018 3.6712C78.371 3.88748 78.413 4.11154 78.4268 4.3382C78.4428 4.5762 78.4498 4.8162 78.4478 5.0622C78.4458 5.3082 78.4428 5.5532 78.4408 5.7992C78.4379 6.03088 78.4516 6.26247 78.4818 6.4922C78.5087 6.69833 78.5625 6.90004 78.6418 7.0922C78.7182 7.27736 78.842 7.43912 79.0008 7.5612C78.9887 7.58146 78.9727 7.59914 78.9538 7.6132L78.9128 7.6482C78.8814 7.6482 78.8658 7.6682 78.8658 7.7082L78.8798 7.7252C78.8798 7.7312 78.8958 7.7342 78.9128 7.7342C78.9298 7.7342 78.9518 7.7342 79.0018 7.7422C79.0518 7.7502 79.0828 7.7502 79.1018 7.7502V7.7682C79.1018 7.7792 79.0848 7.7942 79.0508 7.8112L78.9658 7.8542C78.9583 7.86725 78.9477 7.87827 78.935 7.88629C78.9223 7.89431 78.9078 7.89909 78.8928 7.9002C78.8728 7.9002 78.8628 7.9182 78.8628 7.9642C78.8605 7.98354 78.866 8.003 78.8779 8.01834C78.8899 8.03369 78.9075 8.0437 78.9268 8.0462C78.9489 8.05058 78.9696 8.06036 78.9871 8.07466C79.0045 8.08897 79.0181 8.10736 79.0268 8.1282C78.9817 8.14241 78.9409 8.16748 78.9078 8.2012C78.8905 8.21815 78.8697 8.2312 78.847 8.23947C78.8242 8.24775 78.7999 8.25107 78.7758 8.2492C78.7197 8.24686 78.6666 8.22368 78.6268 8.1842C78.5802 8.14203 78.5196 8.11884 78.4568 8.1192C78.4455 8.11791 78.4341 8.11791 78.4228 8.1192C78.4118 8.1202 78.4007 8.1202 78.3898 8.1192L78.6478 8.2662C78.6467 8.29824 78.6347 8.32895 78.6138 8.3532C78.5909 8.38178 78.5636 8.40644 78.5328 8.4262C78.5043 8.44488 78.4734 8.45937 78.4408 8.4692C78.4176 8.47601 78.393 8.47601 78.3698 8.4692C78.3245 8.46578 78.28 8.45567 78.2378 8.4392L78.1378 8.3952C78.1054 8.38128 78.0719 8.36991 78.0378 8.3612C77.9921 8.35117 77.9455 8.3468 77.8988 8.3482H77.8928C77.8928 8.3652 77.9038 8.3872 77.9128 8.4132C77.9221 8.43953 77.9269 8.46727 77.9268 8.4952C77.8896 8.49443 77.8531 8.48556 77.8198 8.4692ZM77.7898 8.3692C77.7898 8.3892 77.8008 8.4002 77.8238 8.4002C77.8468 8.4002 77.8368 8.3902 77.8368 8.3692C77.8368 8.3482 77.8368 8.3382 77.8238 8.3382C77.8108 8.3382 77.7928 8.3452 77.7928 8.3642L77.7898 8.3692ZM78.7198 7.9232C78.7198 7.9522 78.7278 7.9662 78.7468 7.9662C78.7658 7.9662 78.7668 7.9522 78.7668 7.9232C78.7668 7.8942 78.7598 7.8802 78.7468 7.8802C78.7338 7.8802 78.7198 7.8902 78.7198 7.9182V7.9232ZM78.4348 7.9232H78.4548L78.4348 7.8802V7.9232ZM77.4028 7.5232C77.4015 7.53842 77.3967 7.55313 77.3888 7.5662C77.4298 7.5662 77.4458 7.5522 77.4368 7.5232L77.4088 7.4892C77.4052 7.49881 77.4031 7.50894 77.4028 7.5192V7.5232ZM77.2878 7.5572C77.2971 7.55589 77.3065 7.55589 77.3158 7.5572C77.3247 7.55884 77.3338 7.55884 77.3428 7.5572V7.5192C77.3219 7.52679 77.3028 7.53872 77.2868 7.5542L77.2878 7.5572ZM77.3878 7.4022C77.3878 7.4082 77.3878 7.4102 77.3978 7.4102C77.4009 7.4102 77.4039 7.40948 77.4067 7.40809C77.4095 7.4067 77.4119 7.40469 77.4138 7.4022C77.4138 7.3842 77.4088 7.3752 77.3978 7.3752C77.3868 7.3752 77.3778 7.3812 77.3818 7.4002L77.3878 7.4022ZM76.4658 3.9102C76.3586 4.07356 76.276 4.2518 76.2208 4.4392C76.1574 4.64586 76.1122 4.85767 76.0858 5.0722C76.0615 5.24588 76.0479 5.42087 76.0448 5.5962C76.0448 5.8222 76.0608 6.0212 76.0788 6.1962C76.0908 6.33464 76.1111 6.47223 76.1398 6.6082C76.1678 6.7322 76.2038 6.7942 76.2488 6.7942C76.2938 6.7942 76.3288 6.7642 76.3408 6.7032C76.3511 6.64506 76.3682 6.58834 76.3918 6.5342C76.4194 6.46646 76.4598 6.40467 76.5108 6.3522C76.5599 6.30307 76.598 6.24412 76.6228 6.1792C76.642 6.09336 76.6566 6.00658 76.6668 5.9192C76.6744 5.83722 76.6986 5.75762 76.7378 5.6852L76.6838 5.7192L76.6698 5.6852C76.6692 5.65951 76.6751 5.63408 76.6868 5.6112C76.6889 5.60664 76.692 5.6026 76.6959 5.59939C76.6998 5.59617 76.7043 5.59386 76.7092 5.59262C76.7141 5.59137 76.7192 5.59123 76.7241 5.5922C76.7291 5.59316 76.7337 5.59521 76.7378 5.5982C76.7899 5.51255 76.8277 5.419 76.8498 5.3212C76.8804 5.19981 76.9031 5.07655 76.9178 4.9522C76.9338 4.8222 76.9438 4.6942 76.9488 4.5672C76.9538 4.4402 76.9558 4.3332 76.9558 4.2462C76.9558 4.2012 76.9558 4.1322 76.9458 4.0462C76.9358 3.9602 76.9358 3.9062 76.9358 3.8952L76.8678 3.6952H76.8398C76.7642 3.69591 76.6901 3.71607 76.6246 3.75372C76.5591 3.79138 76.5044 3.84527 76.4658 3.9102ZM76.4928 6.4542C76.4928 6.4832 76.5038 6.4972 76.5258 6.4972C76.5478 6.4972 76.5458 6.4832 76.5458 6.4542C76.5458 6.4252 76.5388 6.4112 76.5258 6.4112C76.5128 6.4112 76.4928 6.4252 76.4928 6.4542ZM73.0588 8.4212C72.987 8.40941 72.9145 8.40339 72.8418 8.4032H72.8218C72.8102 8.40684 72.7997 8.41299 72.7908 8.4212L72.7818 8.4272C72.7478 8.39784 72.7084 8.37542 72.6658 8.3612C72.6139 8.34306 72.5607 8.32869 72.5068 8.3182C72.4498 8.3062 72.3938 8.2932 72.3368 8.2782C72.2848 8.26592 72.2337 8.25022 72.1838 8.2312C72.1495 8.2229 72.116 8.21152 72.0838 8.1972L71.9518 8.1442L71.8308 8.1002C71.8134 8.09279 71.7953 8.0871 71.7768 8.0832C71.6249 7.99695 71.4856 7.89029 71.3628 7.7662C71.2312 7.63526 71.1129 7.49155 71.0098 7.3372C70.983 7.30015 70.9593 7.26102 70.9388 7.2202C70.9172 7.17512 70.8862 7.13522 70.8478 7.1032H70.8198C70.7968 7.0342 70.7698 6.9622 70.7388 6.8872C70.7143 6.8202 70.6658 6.76463 70.6028 6.7312C70.5086 6.54745 70.4258 6.35809 70.3548 6.1642C70.2268 5.81023 70.1717 5.43402 70.1928 5.0582C70.203 4.8558 70.2328 4.65486 70.2818 4.4582C70.3128 4.3132 70.3418 4.1672 70.3668 4.0162C70.3903 3.87015 70.4323 3.72768 70.4918 3.5922C70.5813 3.42019 70.6918 3.25996 70.8208 3.1152C70.9463 2.97399 71.0887 2.84872 71.2448 2.7422C71.393 2.64129 71.5537 2.55995 71.7228 2.5002C71.881 2.44351 72.0477 2.41409 72.2158 2.4132C72.2342 2.41556 72.2523 2.41992 72.2698 2.4262L72.3548 2.4562C72.3848 2.4682 72.4108 2.4792 72.4358 2.4872C72.4521 2.49376 72.4693 2.49814 72.4868 2.5002C72.5097 2.50612 72.5307 2.51783 72.5478 2.5342C72.5571 2.54717 72.5638 2.56175 72.5678 2.5772C72.5714 2.59352 72.5772 2.60931 72.5848 2.6242C72.5982 2.64433 72.6191 2.65834 72.6428 2.6632C72.6692 2.66746 72.6952 2.67347 72.7208 2.6812C72.7442 2.68957 72.7683 2.69593 72.7928 2.7002C72.827 2.71115 72.8604 2.72451 72.8928 2.7402C72.9358 2.7602 72.9808 2.7852 73.0288 2.8132C73.0737 2.84067 73.1168 2.87107 73.1578 2.9042C73.188 2.92718 73.2143 2.95486 73.2358 2.9862C73.2477 3.00735 73.2545 3.03097 73.2558 3.0552C73.2558 3.0892 73.2648 3.1072 73.2698 3.1072L73.2898 3.1152L73.3038 3.1072C73.3128 3.1072 73.3198 3.0992 73.3238 3.0812C73.3274 3.07016 73.3297 3.05876 73.3308 3.0472C73.3898 3.0652 73.4308 3.0792 73.4628 3.0902C73.4914 3.10157 73.5177 3.11781 73.5408 3.1382C73.5628 3.1582 73.5678 3.1772 73.5548 3.1942L73.7548 3.4452C73.7458 3.4452 73.7408 3.4512 73.7408 3.4632C73.7408 3.4752 73.7408 3.4802 73.7548 3.4802C73.7688 3.4802 73.7848 3.5092 73.8298 3.5322C73.8537 3.546 73.8788 3.55771 73.9048 3.5672C73.9358 3.6832 73.9708 3.7962 74.0048 3.9092C74.0444 4.02814 74.064 4.15284 74.0628 4.2782C74.0632 4.35769 74.0507 4.43671 74.0258 4.5122C74.0005 4.58862 73.9811 4.66685 73.9678 4.7462C73.9595 4.77904 73.9538 4.81248 73.9508 4.8462C73.9438 4.9012 73.9388 4.9372 73.9348 4.9542C73.9311 4.95396 73.9273 4.95455 73.9239 4.95594C73.9204 4.95732 73.9173 4.95946 73.9148 4.9622L73.9008 4.9802C73.8839 5.00489 73.8633 5.02682 73.8398 5.0452C73.8183 5.06521 73.7955 5.08391 73.7718 5.1012C73.7629 5.12001 73.7514 5.1375 73.7378 5.1532L73.6768 5.2322C73.6548 5.26087 73.6344 5.2882 73.6158 5.3142C73.6042 5.3286 73.5951 5.34482 73.5888 5.3622C73.4919 5.44701 73.379 5.51161 73.2568 5.5522C73.1332 5.59345 73.006 5.62259 72.8768 5.6392C72.7461 5.65628 72.6145 5.66497 72.4828 5.6652C72.3518 5.6652 72.2268 5.6652 72.1098 5.6732C72.0868 5.6732 72.0608 5.6732 72.0318 5.6732L71.9398 5.6862L71.8248 5.7042V5.8002C71.8468 5.8462 71.8678 5.8902 71.8858 5.9302C71.9038 5.9702 71.9218 6.0012 71.9398 6.0382C71.9578 6.0752 71.9738 6.1052 71.9878 6.1292C72.0742 6.29188 72.1826 6.44195 72.3098 6.5752C72.4348 6.7052 72.5598 6.8252 72.6858 6.9352C72.7114 6.96064 72.7416 6.981 72.7748 6.9952C72.8198 7.0182 72.8668 7.0432 72.9138 7.0682L73.0428 7.1372C73.0686 7.14925 73.0926 7.16509 73.1138 7.1842H73.2428C73.3048 7.1821 73.3653 7.16457 73.4188 7.1332C73.4818 7.0982 73.5468 7.0622 73.6118 7.0242C73.6768 6.9862 73.7388 6.9542 73.7948 6.9242C73.8152 6.9107 73.8384 6.90205 73.8627 6.89893C73.8869 6.89581 73.9116 6.8983 73.9348 6.9062C73.9348 6.9062 73.9458 6.9182 73.9548 6.9412C73.9623 6.95763 73.967 6.97521 73.9688 6.9932C73.9865 6.97415 74.0059 6.95674 74.0268 6.9412C74.0442 6.92132 74.0672 6.90705 74.0928 6.9002C74.1018 6.9002 74.1178 6.9102 74.1408 6.9302C74.1593 6.94477 74.1735 6.96414 74.1818 6.9862L74.0928 7.1002C74.0976 7.10057 74.1022 7.10253 74.1058 7.10579C74.1095 7.10905 74.1119 7.11341 74.1128 7.1182C74.1128 7.1302 74.1248 7.1362 74.1338 7.1362V7.1792L74.0618 7.2452C74.0414 7.26495 74.0201 7.28365 73.9978 7.3012L73.9928 7.3202L73.9788 7.3382C73.9821 7.34751 73.9868 7.35628 73.9928 7.3642C73.9928 7.3702 73.9928 7.3722 73.9928 7.3722C73.9928 7.3722 73.9928 7.3722 73.9928 7.3812C73.9928 7.3902 73.9928 7.3892 73.9998 7.3892C73.9985 7.40442 73.9937 7.41913 73.9858 7.4322C73.9779 7.44528 73.9731 7.45999 73.9718 7.4752C73.9921 7.44967 74.0191 7.43028 74.0498 7.4192C74.0763 7.40468 74.105 7.39455 74.1348 7.3892C74.1462 7.39007 74.1574 7.39312 74.1678 7.3982C74.1774 7.4039 74.1878 7.40796 74.1988 7.4102C74.2094 7.41341 74.2195 7.41813 74.2288 7.4242C74.2317 7.43053 74.236 7.43614 74.2414 7.44063C74.2468 7.44512 74.253 7.44839 74.2598 7.4502C74.2741 7.45517 74.2868 7.46379 74.2968 7.4752V7.5102L74.0968 7.7442H74.1378L74.3888 7.5362H74.4158C74.3924 7.56818 74.371 7.60158 74.3518 7.6362C74.3242 7.67894 74.3086 7.72835 74.3068 7.7792C74.2158 7.8432 74.1438 7.8952 74.0898 7.9352C74.0358 7.9752 73.9898 8.0152 73.9408 8.0522C73.8918 8.0892 73.8728 8.1122 73.8728 8.1182C73.8822 8.11321 73.8926 8.1106 73.9033 8.1106C73.9139 8.1106 73.9244 8.11321 73.9338 8.1182C73.9568 8.1272 73.9698 8.1372 73.9748 8.1482C73.9256 8.17909 73.8745 8.20681 73.8218 8.2312C73.7558 8.2632 73.6888 8.2952 73.6218 8.3262C73.5548 8.3572 73.4858 8.3862 73.4218 8.4082C73.3799 8.42684 73.3354 8.43866 73.2898 8.4432C73.2123 8.4417 73.1351 8.43435 73.0588 8.4212ZM73.8798 7.4682C73.8798 7.4972 73.8888 7.5112 73.9078 7.5112C73.9268 7.5112 73.9348 7.4972 73.9348 7.4682C73.9348 7.4392 73.9258 7.4252 73.9078 7.4252C73.8898 7.4252 73.8808 7.4392 73.8808 7.4672L73.8798 7.4682ZM73.6428 5.1892C73.6568 5.2122 73.6728 5.2122 73.6908 5.1892C73.6908 5.1772 73.6828 5.1712 73.6668 5.1712C73.6508 5.1712 73.6428 5.1772 73.6428 5.1892ZM73.8798 4.9112C73.8798 4.9402 73.8888 4.9542 73.9078 4.9542C73.9268 4.9542 73.9348 4.9402 73.9348 4.9112C73.9348 4.8822 73.9258 4.8682 73.9078 4.8682C73.8898 4.8682 73.8798 4.8832 73.8798 4.9112ZM72.3468 3.9002C72.2654 3.9438 72.188 3.99468 72.1158 4.0522C72.0413 4.11059 71.9742 4.17775 71.9158 4.2522C71.8656 4.30732 71.8356 4.37783 71.8308 4.4522C71.8894 4.45205 71.9476 4.46047 72.0038 4.4772C72.0551 4.49413 72.1087 4.5029 72.1628 4.5032C72.2348 4.5032 72.2998 4.5032 72.3558 4.4952L72.5768 4.4682C72.6203 4.42419 72.6466 4.36598 72.6508 4.3042C72.6625 4.24117 72.6692 4.1773 72.6708 4.1132C72.6707 4.05067 72.6581 3.98879 72.6338 3.9312C72.6255 3.90615 72.6096 3.88434 72.5882 3.86889C72.5669 3.85344 72.5411 3.84515 72.5148 3.8452C72.4556 3.85165 72.3983 3.87038 72.3468 3.9002ZM72.1288 3.7442C72.0838 3.7732 72.0608 3.7932 72.0608 3.8052V3.8912L71.8978 4.0912C71.9708 4.0112 72.0438 3.9322 72.1188 3.8572C72.1866 3.78533 72.2756 3.73698 72.3728 3.7192C72.3728 3.6892 72.3628 3.6772 72.3418 3.6792H72.2978H72.2508C72.208 3.69512 72.1674 3.71628 72.1298 3.7422L72.1288 3.7442ZM73.4528 3.2202C73.4528 3.2352 73.4528 3.2412 73.4598 3.2412C73.464 3.2384 73.4675 3.23451 73.4698 3.22995C73.472 3.22538 73.4731 3.2203 73.4728 3.2152C73.4728 3.2042 73.4728 3.1972 73.4598 3.1972C73.4468 3.1972 73.4538 3.2002 73.4538 3.2172L73.4528 3.2202ZM73.3098 3.1552C73.3098 3.1842 73.3168 3.1982 73.3298 3.1982C73.3428 3.1982 73.3568 3.1842 73.3568 3.1552C73.3568 3.1262 73.3478 3.1122 73.3298 3.1122C73.3118 3.1122 73.3108 3.1242 73.3108 3.1522L73.3098 3.1552ZM73.1808 3.0342C73.1808 3.0632 73.1928 3.0772 73.2148 3.0772C73.2368 3.0772 73.2288 3.0632 73.2288 3.0342C73.2288 3.0052 73.2288 2.9912 73.2148 2.9912C73.2008 2.9912 73.1808 3.0002 73.1808 3.0312V3.0342ZM73.1268 3.0342C73.1268 3.0632 73.1338 3.0772 73.1468 3.0772C73.1598 3.0772 73.1598 3.0632 73.1598 3.0342C73.1598 3.0052 73.1598 2.9912 73.1468 2.9912C73.1338 2.9912 73.1278 3.0002 73.1278 3.0312L73.1268 3.0342ZM72.7538 8.4412C72.764 8.43968 72.7736 8.43554 72.7818 8.4292L72.7948 8.4412H72.7538ZM82.2778 4.2512C82.2718 4.24949 82.2664 4.24616 82.2621 4.24157C82.2579 4.23698 82.255 4.23132 82.2538 4.2252C82.2538 4.2112 82.2538 4.1922 82.2808 4.1692C82.2988 4.2042 82.3058 4.2272 82.3008 4.2382C82.2999 4.24209 82.2977 4.24557 82.2947 4.24811C82.2916 4.25064 82.2878 4.25208 82.2838 4.2522L82.2778 4.2512ZM82.5358 3.9352V3.9142C82.5389 3.91829 82.543 3.92153 82.5478 3.92363C82.5525 3.92572 82.5576 3.92661 82.5628 3.9262C82.5488 3.9752 82.5398 4.0002 82.5358 4.0002C82.5318 4.0002 82.5298 3.9792 82.5358 3.9332V3.9352ZM82.5798 3.8802C82.5798 3.8802 82.5798 3.8802 82.5798 3.8872C82.5798 3.91187 82.5758 3.92487 82.5678 3.9262L82.5798 3.8802ZM82.5318 3.8872C82.5315 3.88387 82.5315 3.88053 82.5318 3.8772L82.5458 3.8712L82.5378 3.9142C82.533 3.90532 82.5313 3.89516 82.5328 3.8852L82.5318 3.8872ZM83.5998 3.4752L83.6158 3.4622C83.6158 3.4712 83.6098 3.4752 83.6048 3.4752H83.5998Z" fill="black"/>
</svg>
